<svg width="680" height="558" viewBox="0 0 680 558" fill="none" xmlns="http://www.w3.org/2000/svg">
<rect width="680" height="558" fill="#071324"/>
<mask id="mask0_1301_18012" style="mask-type:alpha" maskUnits="userSpaceOnUse" x="0" y="0" width="680" height="558">
<rect width="680" height="558" fill="#BFEBC8"/>
</mask>
<g mask="url(#mask0_1301_18012)">
<g filter="url(#filter0_d_1301_18012)">
<rect width="843.051" height="625.156" rx="24" transform="matrix(0.90257 -0.430543 0.707074 0.707139 -133.675 239.746)" fill="#0F1E34"/>
</g>
<rect width="186.588" height="393.617" rx="8" transform="matrix(0.90257 -0.430543 0.707074 0.707139 39.2568 356.404)" fill="#213450"/>
<rect width="528.439" height="301.001" rx="8" transform="matrix(0.90257 -0.430543 0.707074 0.707139 141.068 151.363)" fill="#213450"/>
<rect width="299.631" height="114.408" rx="8" transform="matrix(0.90257 -0.430543 0.707074 0.707139 285.172 251.902)" fill="#0F1E34"/>
<rect width="186.588" height="107.598" rx="8" transform="matrix(0.90257 -0.430543 0.707074 0.707139 -66.6768 250.461)" fill="#213450"/>
<path fill-rule="evenodd" clip-rule="evenodd" d="M177.232 419.948C175.67 418.386 176.02 416.348 178.014 415.397L244.549 383.658C246.543 382.707 249.425 383.203 250.987 384.765L254.961 388.739C256.523 390.301 256.173 392.339 254.179 393.29L187.644 425.028C185.65 425.979 182.767 425.484 181.205 423.922L177.232 419.948Z" fill="#465E82"/>
<path fill-rule="evenodd" clip-rule="evenodd" d="M322.65 565.377C321.088 563.815 321.438 561.778 323.432 560.827L389.967 529.088C391.961 528.137 394.843 528.632 396.405 530.194L400.379 534.169C401.941 535.731 401.591 537.768 399.597 538.719L333.062 570.458C331.068 571.409 328.185 570.914 326.623 569.352L322.65 565.377Z" fill="#465E82"/>
<path fill-rule="evenodd" clip-rule="evenodd" d="M303.389 546.116C301.827 544.553 302.177 542.516 304.171 541.565L370.706 509.826C372.7 508.875 375.583 509.371 377.145 510.933L381.118 514.907C382.68 516.469 382.33 518.506 380.336 519.458L313.801 551.196C311.807 552.147 308.925 551.652 307.363 550.09L303.389 546.116Z" fill="#465E82"/>
<path fill-rule="evenodd" clip-rule="evenodd" d="M196.492 439.209C194.93 437.647 195.28 435.61 197.274 434.659L263.809 402.92C265.803 401.969 268.686 402.464 270.248 404.027L274.222 408.001C275.784 409.563 275.434 411.6 273.44 412.551L206.905 444.29C204.911 445.241 202.028 444.746 200.466 443.184L196.492 439.209Z" fill="#465E82"/>
<path fill-rule="evenodd" clip-rule="evenodd" d="M341.91 584.641C340.348 583.079 340.698 581.041 342.692 580.09L409.227 548.352C411.221 547.401 414.104 547.896 415.666 549.458L419.64 553.432C421.202 554.994 420.852 557.032 418.858 557.983L352.323 589.722C350.329 590.673 347.446 590.177 345.884 588.615L341.91 584.641Z" fill="#465E82"/>
<path fill-rule="evenodd" clip-rule="evenodd" d="M672.006 141.254C670.444 139.692 670.794 137.655 672.788 136.704L739.323 104.965C741.317 104.014 744.2 104.509 745.762 106.071L749.735 110.046C751.297 111.608 750.947 113.645 748.953 114.596L682.418 146.335C680.424 147.286 677.542 146.791 675.98 145.228L672.006 141.254Z" fill="#465E82"/>
<path fill-rule="evenodd" clip-rule="evenodd" d="M651.782 121.03C650.22 119.468 650.57 117.43 652.564 116.479L719.1 84.7405C721.093 83.7893 723.976 84.2847 725.538 85.8468L729.512 89.8209C731.074 91.3831 730.724 93.4205 728.73 94.3717L662.195 126.11C660.201 127.061 657.318 126.566 655.756 125.004L651.782 121.03Z" fill="#465E82"/>
<path fill-rule="evenodd" clip-rule="evenodd" d="M631.559 100.803C629.997 99.241 630.347 97.2036 632.341 96.2524L698.876 64.5139C700.87 63.5628 703.752 64.0581 705.314 65.6203L709.288 69.5944C710.85 71.1565 710.5 73.194 708.506 74.1451L641.971 105.884C639.977 106.835 637.095 106.339 635.532 104.777L631.559 100.803Z" fill="#465E82"/>
<rect width="13.6196" height="13.62" rx="5" transform="matrix(0.90257 -0.430543 0.707074 0.707139 149.818 428.846)" fill="#465E82"/>
<rect width="13.6196" height="13.62" rx="5" transform="matrix(0.90257 -0.430543 0.707074 0.707139 275.976 555.016)" fill="#465E82"/>
<rect width="13.6196" height="13.62" rx="5" transform="matrix(0.90257 -0.430543 0.707074 0.707139 169.079 448.107)" fill="#465E82"/>
<rect width="13.6196" height="13.62" rx="5" transform="matrix(0.90257 -0.430543 0.707074 0.707139 665.779 171.342)" fill="#465E82"/>
<rect width="13.6196" height="13.62" rx="5" transform="matrix(0.90257 -0.430543 0.707074 0.707139 644.593 150.154)" fill="#465E82"/>
<rect width="13.6196" height="13.62" rx="5" transform="matrix(0.90257 -0.430543 0.707074 0.707139 624.369 129.928)" fill="#465E82"/>
<rect width="13.6196" height="13.62" rx="5" transform="matrix(0.90257 -0.430543 0.707074 0.707139 604.146 109.703)" fill="#465E82"/>
<path fill-rule="evenodd" clip-rule="evenodd" d="M90.049 369.071C88.487 367.509 88.8371 365.471 90.831 364.52L199.161 312.844C201.155 311.893 204.038 312.389 205.6 313.951L214.388 322.741C215.95 324.303 215.6 326.34 213.606 327.291L105.276 378.967C103.283 379.918 100.4 379.423 98.8379 377.86L90.049 369.071Z" fill="#465E82"/>
<path fill-rule="evenodd" clip-rule="evenodd" d="M195.815 160.721C194.253 159.159 194.603 157.122 196.597 156.17L539.716 -7.50403C541.71 -8.45516 544.592 -7.9598 546.154 -6.39763L554.943 2.39207C556.505 3.95424 556.155 5.99167 554.161 6.9428L211.042 170.617C209.048 171.568 206.166 171.073 204.604 169.511L195.815 160.721Z" fill="#465E82"/>
<path fill-rule="evenodd" clip-rule="evenodd" d="M112.711 391.735C111.93 390.954 112.105 389.935 113.102 389.459L174.643 360.103C175.64 359.628 177.081 359.875 177.862 360.656L184.664 367.459C185.445 368.24 185.27 369.259 184.273 369.734L122.732 399.09C121.735 399.566 120.294 399.318 119.513 398.537L112.711 391.735Z" fill="#0F1E34"/>
<path fill-rule="evenodd" clip-rule="evenodd" d="M218.477 183.385C217.696 182.604 217.871 181.585 218.868 181.11L469.715 61.4508C470.711 60.9752 472.153 61.2229 472.934 62.004L479.736 68.8066C480.517 69.5877 480.342 70.6064 479.345 71.082L228.498 190.741C227.501 191.216 226.06 190.969 225.279 190.188L218.477 183.385Z" fill="#0F1E34"/>
<path fill-rule="evenodd" clip-rule="evenodd" d="M237.737 202.647C236.956 201.866 237.131 200.847 238.128 200.371L356.215 144.042C357.212 143.566 358.653 143.814 359.434 144.595L366.236 151.398C367.017 152.179 366.842 153.197 365.845 153.673L247.759 210.003C246.762 210.478 245.32 210.23 244.539 209.449L237.737 202.647Z" fill="#0F1E34"/>
<path fill-rule="evenodd" clip-rule="evenodd" d="M196.495 475.528C195.714 474.746 195.889 473.728 196.886 473.252L258.427 443.896C259.424 443.421 260.865 443.668 261.646 444.449L268.448 451.252C269.229 452.033 269.054 453.052 268.057 453.527L206.517 482.883C205.52 483.359 204.078 483.111 203.297 482.33L196.495 475.528Z" fill="#0F1E34"/>
<path fill-rule="evenodd" clip-rule="evenodd" d="M233.09 512.125C232.309 511.344 232.484 510.325 233.481 509.85L319.607 468.766C320.604 468.291 322.045 468.538 322.826 469.319L329.628 476.122C330.409 476.903 330.234 477.922 329.237 478.397L243.111 519.481C242.114 519.957 240.673 519.709 239.892 518.928L233.09 512.125Z" fill="#0F1E34"/>
<path fill-rule="evenodd" clip-rule="evenodd" d="M130.046 409.071C129.265 408.289 129.44 407.271 130.437 406.795L214.104 366.884C215.101 366.409 216.543 366.656 217.324 367.437L224.126 374.24C224.907 375.021 224.732 376.04 223.735 376.515L140.067 416.426C139.07 416.902 137.629 416.654 136.848 415.873L130.046 409.071Z" fill="#0F1E34"/>
<path fill-rule="evenodd" clip-rule="evenodd" d="M214.792 493.826C214.011 493.045 214.186 492.027 215.183 491.551L322.206 440.499C323.203 440.023 324.645 440.271 325.426 441.052L332.228 447.855C333.009 448.636 332.834 449.655 331.837 450.13L224.813 501.182C223.816 501.658 222.375 501.41 221.594 500.629L214.792 493.826Z" fill="#0F1E34"/>
<path fill-rule="evenodd" clip-rule="evenodd" d="M375.185 315.653C374.188 316.128 372.747 315.88 371.966 315.099L363.506 306.639C362.725 305.858 362.9 304.839 363.897 304.364L372.154 300.425C373.151 299.95 374.592 300.198 375.373 300.979L383.832 309.439C384.613 310.22 384.438 311.239 383.441 311.714L375.185 315.653Z" fill="#465E82"/>
<path fill-rule="evenodd" clip-rule="evenodd" d="M451.131 279.424C450.134 279.9 448.693 279.652 447.912 278.871L439.453 270.411C438.672 269.63 438.847 268.611 439.844 268.135L448.1 264.197C449.097 263.721 450.538 263.969 451.319 264.75L459.779 273.21C460.56 273.991 460.385 275.01 459.388 275.486L451.131 279.424Z" fill="#465E82"/>
<path fill-rule="evenodd" clip-rule="evenodd" d="M527.078 243.198C526.081 243.673 524.639 243.425 523.858 242.644L497.527 216.31C496.746 215.529 496.921 214.511 497.918 214.035L506.174 210.097C507.171 209.621 508.612 209.869 509.394 210.65L535.725 236.984C536.506 237.765 536.331 238.783 535.334 239.259L527.078 243.198Z" fill="#465E82"/>
<path fill-rule="evenodd" clip-rule="evenodd" d="M394.171 306.596C393.174 307.072 391.733 306.824 390.952 306.043L374.968 290.057C374.187 289.276 374.362 288.257 375.359 287.781L383.615 283.843C384.612 283.367 386.053 283.615 386.834 284.396L402.819 300.382C403.6 301.163 403.425 302.182 402.428 302.658L394.171 306.596Z" fill="#465E82"/>
<path fill-rule="evenodd" clip-rule="evenodd" d="M470.119 270.367C469.122 270.843 467.68 270.595 466.899 269.814L447.152 250.065C446.371 249.284 446.546 248.266 447.543 247.79L455.8 243.852C456.797 243.376 458.238 243.624 459.019 244.405L478.766 264.154C479.547 264.935 479.372 265.953 478.375 266.429L470.119 270.367Z" fill="#465E82"/>
<path fill-rule="evenodd" clip-rule="evenodd" d="M546.065 234.139C545.068 234.614 543.627 234.367 542.846 233.586L526.861 217.6C526.08 216.819 526.255 215.8 527.252 215.324L535.509 211.386C536.505 210.91 537.947 211.158 538.728 211.939L554.712 227.925C555.493 228.706 555.318 229.725 554.321 230.2L546.065 234.139Z" fill="#465E82"/>
<path fill-rule="evenodd" clip-rule="evenodd" d="M413.159 297.539C412.162 298.015 410.72 297.767 409.939 296.986L401.48 288.526C400.699 287.745 400.874 286.726 401.871 286.251L410.127 282.312C411.124 281.837 412.566 282.084 413.347 282.865L421.806 291.325C422.587 292.107 422.412 293.125 421.415 293.601L413.159 297.539Z" fill="#465E82"/>
<path fill-rule="evenodd" clip-rule="evenodd" d="M489.106 261.311C488.109 261.786 486.668 261.539 485.887 260.758L471.313 246.183C470.532 245.402 470.707 244.383 471.704 243.907L479.961 239.969C480.957 239.493 482.399 239.741 483.18 240.522L497.753 255.097C498.534 255.878 498.359 256.897 497.362 257.372L489.106 261.311Z" fill="#465E82"/>
<path fill-rule="evenodd" clip-rule="evenodd" d="M565.051 225.082C564.054 225.558 562.613 225.31 561.832 224.529L537.852 200.547C537.071 199.766 537.246 198.747 538.243 198.272L546.499 194.333C547.496 193.858 548.938 194.105 549.719 194.886L573.699 218.868C574.48 219.65 574.305 220.668 573.308 221.144L565.051 225.082Z" fill="#465E82"/>
<path fill-rule="evenodd" clip-rule="evenodd" d="M584.038 216.026C583.041 216.501 581.599 216.254 580.818 215.472L552.135 186.787C551.354 186.006 551.529 184.987 552.526 184.511L560.783 180.573C561.78 180.097 563.221 180.345 564.002 181.126L592.685 209.812C593.466 210.593 593.291 211.612 592.294 212.087L584.038 216.026Z" fill="#465E82"/>
<path fill-rule="evenodd" clip-rule="evenodd" d="M432.145 288.481C431.148 288.956 429.707 288.709 428.926 287.928L404.005 263.005C403.224 262.224 403.399 261.205 404.396 260.729L412.653 256.791C413.65 256.315 415.091 256.563 415.872 257.344L440.792 282.267C441.573 283.048 441.398 284.067 440.401 284.542L432.145 288.481Z" fill="#465E82"/>
<path fill-rule="evenodd" clip-rule="evenodd" d="M508.09 252.254C507.093 252.73 505.652 252.482 504.871 251.701L474.307 221.134C473.526 220.353 473.701 219.334 474.698 218.858L482.954 214.92C483.951 214.444 485.392 214.692 486.173 215.473L516.738 246.04C517.519 246.821 517.344 247.84 516.347 248.316L508.09 252.254Z" fill="#465E82"/>
<path fill-rule="evenodd" clip-rule="evenodd" d="M603.024 206.969C602.027 207.445 600.586 207.197 599.805 206.416L562.186 168.793C561.405 168.012 561.58 166.993 562.577 166.518L570.833 162.579C571.83 162.104 573.271 162.352 574.052 163.133L611.671 200.755C612.452 201.536 612.277 202.555 611.28 203.031L603.024 206.969Z" fill="#465E82"/>
<ellipse cx="27.9201" cy="27.9209" rx="27.9201" ry="27.9209" transform="matrix(0.90257 -0.430543 0.707074 0.707139 9.66211 239.652)" fill="#465E82"/>
<rect width="528.439" height="42.2219" rx="8" transform="matrix(0.90257 -0.430543 0.707074 0.707139 495.465 505.793)" fill="#213450"/>
<path fill-rule="evenodd" clip-rule="evenodd" d="M560.33 492.588C559.549 491.807 559.724 490.788 560.721 490.313L630.867 456.852C631.864 456.376 633.305 456.624 634.086 457.405L640.888 464.208C641.669 464.989 641.494 466.008 640.497 466.483L570.351 499.944C569.355 500.419 567.913 500.172 567.132 499.391L560.33 492.588Z" fill="#465E82"/>
<ellipse cx="9.53371" cy="9.53397" rx="9.53371" ry="9.53397" transform="matrix(0.90257 -0.430543 0.707074 0.707139 518.883 507.424)" fill="#465E82"/>
<rect width="528.439" height="42.2219" rx="8" transform="matrix(0.90257 -0.430543 0.707074 0.707139 456.943 467.268)" fill="#213450"/>
<path fill-rule="evenodd" clip-rule="evenodd" d="M521.809 454.063C521.028 453.282 521.203 452.263 522.2 451.787L560.384 433.573C561.381 433.097 562.823 433.345 563.604 434.126L570.406 440.928C571.187 441.709 571.012 442.728 570.015 443.204L531.83 461.419C530.833 461.894 529.392 461.646 528.611 460.865L521.809 454.063Z" fill="#465E82"/>
<ellipse cx="9.53371" cy="9.53398" rx="9.53371" ry="9.53398" transform="matrix(0.90257 -0.430543 0.707074 0.707139 480.361 468.898)" fill="#465E82"/>
<rect width="528.439" height="42.2219" rx="8" transform="matrix(0.90257 -0.430543 0.707074 0.707139 418.422 428.742)" fill="#213450"/>
<path fill-rule="evenodd" clip-rule="evenodd" d="M483.287 415.537C482.506 414.756 482.681 413.738 483.678 413.262L537.843 387.424C538.84 386.949 540.281 387.196 541.062 387.977L547.865 394.78C548.646 395.561 548.47 396.58 547.474 397.055L493.309 422.893C492.312 423.369 490.87 423.121 490.089 422.34L483.287 415.537Z" fill="#465E82"/>
<path fill-rule="evenodd" clip-rule="evenodd" d="M649.238 336.375C648.457 335.594 648.632 334.575 649.629 334.1L837.784 244.346C838.781 243.871 840.222 244.119 841.003 244.9L847.805 251.702C848.586 252.483 848.411 253.502 847.414 253.978L659.26 343.731C658.263 344.207 656.821 343.959 656.04 343.178L649.238 336.375Z" fill="#465E82"/>
<ellipse cx="9.53371" cy="9.53398" rx="9.53371" ry="9.53398" transform="matrix(0.90257 -0.430543 0.707074 0.707139 441.84 430.373)" fill="#465E82"/>
<g opacity="0.3" filter="url(#filter1_f_1301_18012)">
<rect width="505.286" height="42.2219" rx="8" transform="matrix(0.90257 -0.430543 0.707074 0.707139 417.64 380.75)" fill="#12B361"/>
</g>
<rect width="528.439" height="42.2219" rx="8" transform="matrix(0.90257 -0.430543 0.707074 0.707139 386.517 371.414)" fill="#12B361"/>
<path fill-rule="evenodd" clip-rule="evenodd" d="M451.382 358.209C450.601 357.428 450.776 356.409 451.773 355.934L531.752 317.782C532.749 317.307 534.191 317.554 534.972 318.335L541.774 325.138C542.555 325.919 542.38 326.938 541.383 327.413L461.403 365.565C460.406 366.041 458.965 365.793 458.184 365.012L451.382 358.209Z" fill="#29ED89"/>
<path fill-rule="evenodd" clip-rule="evenodd" d="M617.333 279.047C616.552 278.266 616.727 277.247 617.724 276.772L737.04 219.856C738.037 219.38 739.478 219.628 740.259 220.409L747.061 227.212C747.842 227.993 747.667 229.011 746.67 229.487L627.354 286.403C626.357 286.879 624.916 286.631 624.135 285.85L617.333 279.047Z" fill="#29ED89"/>
<ellipse cx="9.53371" cy="9.53398" rx="9.53371" ry="9.53398" transform="matrix(0.90257 -0.430543 0.707074 0.707139 409.935 373.045)" fill="#29ED89"/>
<path d="M54.7379 246.6L54.7374 246.6C57.6616 245.206 58.0923 242.134 55.6992 239.741C53.3056 237.347 48.9946 236.538 46.0699 237.932C43.1449 239.327 42.7147 242.398 45.1073 244.792L45.107 244.792C47.4996 247.185 51.8111 247.995 54.7353 246.6L54.7379 246.6ZM55.9761 247.839C52.694 249.404 47.8011 254.189 51.0946 257.483L53.5709 259.959L73.2391 250.577L70.7628 248.101C67.4693 244.807 59.2582 246.273 55.9761 247.839Z" fill="#213450"/>
</g>
<defs>
<filter id="filter0_d_1301_18012" x="-162.562" y="-130.793" width="1260.72" height="870.18" filterUnits="userSpaceOnUse" color-interpolation-filters="sRGB">
<feFlood flood-opacity="0" result="BackgroundImageFix"/>
<feColorMatrix in="SourceAlpha" type="matrix" values="0 0 0 0 0 0 0 0 0 0 0 0 0 0 0 0 0 0 127 0" result="hardAlpha"/>
<feMorphology radius="10" operator="erode" in="SourceAlpha" result="effect1_dropShadow_1301_18012"/>
<feOffset dy="25"/>
<feGaussianBlur stdDeviation="25"/>
<feColorMatrix type="matrix" values="0 0 0 0 0.021875 0 0 0 0 0.0395148 0 0 0 0 0.125 0 0 0 1 0"/>
<feBlend mode="normal" in2="BackgroundImageFix" result="effect1_dropShadow_1301_18012"/>
<feBlend mode="normal" in="SourceGraphic" in2="effect1_dropShadow_1301_18012" result="shape"/>
</filter>
<filter id="filter1_f_1301_18012" x="391.344" y="135.68" width="538.502" height="302.449" filterUnits="userSpaceOnUse" color-interpolation-filters="sRGB">
<feFlood flood-opacity="0" result="BackgroundImageFix"/>
<feBlend mode="normal" in="SourceGraphic" in2="BackgroundImageFix" result="shape"/>
<feGaussianBlur stdDeviation="15" result="effect1_foregroundBlur_1301_18012"/>
</filter>
</defs>
</svg>
