<svg width="309" height="389" viewBox="0 0 309 389" fill="none" xmlns="http://www.w3.org/2000/svg">
<rect width="309" height="389" fill="#0F1E34"/>
<path fill-rule="evenodd" clip-rule="evenodd" d="M31 146C31 143.791 32.7909 142 35 142H168C170.209 142 172 143.791 172 146V151C172 153.209 170.209 155 168 155H35C32.7909 155 31 153.209 31 151V146Z" fill="#465E82"/>
<path fill-rule="evenodd" clip-rule="evenodd" d="M31 324C31 321.791 32.7909 320 35 320H231C233.209 320 235 321.791 235 324V329C235 331.209 233.209 333 231 333H35C32.7909 333 31 331.209 31 329V324Z" fill="#465E82"/>
<path fill-rule="evenodd" clip-rule="evenodd" d="M31 165C31 163.895 31.8954 163 33 163H188C189.105 163 190 163.895 190 165V169C190 170.105 189.105 171 188 171H33C31.8954 171 31 170.105 31 169V165Z" fill="#213450"/>
<path fill-rule="evenodd" clip-rule="evenodd" d="M31 343C31 341.895 31.8954 341 33 341H207C208.105 341 209 341.895 209 343V347C209 348.105 208.105 349 207 349H33C31.8954 349 31 348.105 31 347V343Z" fill="#213450"/>
<path fill-rule="evenodd" clip-rule="evenodd" d="M31 177C31 175.895 31.8954 175 33 175H241C242.105 175 243 175.895 243 177V181C243 182.105 242.105 183 241 183H33C31.8954 183 31 182.105 31 181V177Z" fill="#213450"/>
<path fill-rule="evenodd" clip-rule="evenodd" d="M31 355C31 353.895 31.8954 353 33 353H157C158.105 353 159 353.895 159 355V359C159 360.105 158.105 361 157 361H33C31.8954 361 31 360.105 31 359V355Z" fill="#213450"/>
<rect x="31" y="25" width="247" height="106" rx="8" fill="#213450"/>
<rect x="31" y="203" width="247" height="106" rx="8" fill="#213450"/>
<path d="M170.718 59.002H139.288H139.287C135.816 59.0049 133.004 61.8381 133.001 65.3351V90.6678L133 90.6668C133.003 94.1629 135.815 96.996 139.285 97H170.715H170.714C174.184 96.996 176.996 94.1629 177 90.6668V65.3342C176.996 61.8371 174.184 59.004 170.714 59L170.718 59.002ZM162.86 65.3351H162.859C165.462 65.3342 167.574 67.4617 167.574 70.085C167.574 72.7074 165.462 74.8349 162.859 74.8349C160.256 74.8349 158.145 72.7074 158.145 70.085H158.144C158.146 67.4627 160.256 65.3371 162.857 65.3342L162.86 65.3351ZM139.288 93.8344L139.287 93.8343C137.55 93.8333 136.144 92.4163 136.144 90.6667V83.9744L145.459 75.6324V75.6314C147.324 73.964 150.155 74.0461 151.922 75.8194L158.301 82.2327L146.788 93.8323L139.288 93.8344ZM173.861 90.6678C173.861 92.4164 172.453 93.8344 170.718 93.8344H151.234L163.16 81.8192V81.8182C164.903 80.324 167.463 80.3171 169.214 81.8024L173.861 85.7032V90.6678Z" fill="#465E82"/>
<path d="M170.718 237.002H139.288H139.287C135.816 237.005 133.004 239.838 133.001 243.335V268.668L133 268.667C133.003 272.163 135.815 274.996 139.285 275H170.715H170.714C174.184 274.996 176.996 272.163 177 268.667V243.334C176.996 239.837 174.184 237.004 170.714 237L170.718 237.002ZM162.86 243.335H162.859C165.462 243.334 167.574 245.462 167.574 248.085C167.574 250.707 165.462 252.835 162.859 252.835C160.256 252.835 158.145 250.707 158.145 248.085H158.144C158.146 245.463 160.256 243.337 162.857 243.334L162.86 243.335ZM139.288 271.834L139.287 271.834C137.55 271.833 136.144 270.416 136.144 268.667V261.974L145.459 253.632V253.631C147.324 251.964 150.155 252.046 151.922 253.819L158.301 260.233L146.788 271.832L139.288 271.834ZM173.861 268.668C173.861 270.416 172.453 271.834 170.718 271.834H151.234L163.16 259.819V259.818C164.903 258.324 167.463 258.317 169.214 259.802L173.861 263.703V268.668Z" fill="#465E82"/>
</svg>
