<svg width="749" height="459" viewBox="0 0 749 459" fill="none" xmlns="http://www.w3.org/2000/svg">
<rect width="749" height="459" fill="#0F1E34"/>
<rect x="31" y="140" width="267" height="289" rx="8" fill="#213450"/>
<rect x="330" y="30" width="388" height="221" rx="8" fill="#213450"/>
<rect x="55" y="303" width="220" height="108" rx="8" fill="#0F1E34"/>
<rect x="354" y="149" width="220" height="84" rx="8" fill="#0F1E34"/>
<rect x="31" y="30" width="267" height="79" rx="8" fill="#213450"/>
<path fill-rule="evenodd" clip-rule="evenodd" d="M76 232C76 229.791 77.7909 228 80 228H132C134.209 228 136 229.791 136 232V234C136 236.209 134.209 238 132 238H80C77.7909 238 76 236.209 76 234V232Z" fill="#465E82"/>
<path fill-rule="evenodd" clip-rule="evenodd" d="M76 252C76 249.791 77.7909 248 80 248H132C134.209 248 136 249.791 136 252V254C136 256.209 134.209 258 132 258H80C77.7909 258 76 256.209 76 254V252Z" fill="#465E82"/>
<path fill-rule="evenodd" clip-rule="evenodd" d="M628 224C628 221.791 629.791 220 632 220H684C686.209 220 688 221.791 688 224V226C688 228.209 686.209 230 684 230H632C629.791 230 628 228.209 628 226V224Z" fill="#465E82"/>
<path fill-rule="evenodd" clip-rule="evenodd" d="M628 202C628 199.791 629.791 198 632 198H684C686.209 198 688 199.791 688 202V204C688 206.209 686.209 208 684 208H632C629.791 208 628 206.209 628 204V202Z" fill="#465E82"/>
<path fill-rule="evenodd" clip-rule="evenodd" d="M628 181C628 178.791 629.791 177 632 177H684C686.209 177 688 178.791 688 181V183C688 185.209 686.209 187 684 187H632C629.791 187 628 185.209 628 183V181Z" fill="#465E82"/>
<path fill-rule="evenodd" clip-rule="evenodd" d="M628 160C628 157.791 629.791 156 632 156H684C686.209 156 688 157.791 688 160V162C688 164.209 686.209 166 684 166H632C629.791 166 628 164.209 628 162V160Z" fill="#465E82"/>
<rect x="56" y="228" width="10" height="10" rx="5" fill="#465E82"/>
<rect x="56" y="248" width="10" height="10" rx="5" fill="#465E82"/>
<rect x="608" y="220" width="10" height="10" rx="5" fill="#465E82"/>
<rect x="608" y="198" width="10" height="10" rx="5" fill="#465E82"/>
<rect x="608" y="177" width="10" height="10" rx="5" fill="#465E82"/>
<rect x="608" y="156" width="10" height="10" rx="5" fill="#465E82"/>
<path fill-rule="evenodd" clip-rule="evenodd" d="M56 167C56 164.791 57.7909 163 60 163H206C208.209 163 210 164.791 210 167V174C210 176.209 208.209 178 206 178H60C57.7909 178 56 176.209 56 174V167Z" fill="#465E82"/>
<path fill-rule="evenodd" clip-rule="evenodd" d="M355 56C355 53.7909 356.791 52 359 52H636C638.209 52 640 53.7909 640 56V63C640 65.2091 638.209 67 636 67H359C356.791 67 355 65.2091 355 63V56Z" fill="#465E82"/>
<path fill-rule="evenodd" clip-rule="evenodd" d="M114 58C114 55.7909 115.791 54 118 54H264C266.209 54 268 55.7909 268 58V65C268 67.2091 266.209 69 264 69H118C115.791 69 114 67.2091 114 65V58Z" fill="#465E82"/>
<path fill-rule="evenodd" clip-rule="evenodd" d="M56 190C56 188.895 56.8954 188 58 188H141C142.105 188 143 188.895 143 190V196C143 197.105 142.105 198 141 198H58C56.8954 198 56 197.105 56 196V190Z" fill="#0F1E34"/>
<path fill-rule="evenodd" clip-rule="evenodd" d="M355 79C355 77.8954 355.895 77 357 77H560C561.105 77 562 77.8954 562 79V85C562 86.1046 561.105 87 560 87H357C355.895 87 355 86.1046 355 85V79Z" fill="#0F1E34"/>
<path fill-rule="evenodd" clip-rule="evenodd" d="M355 99C355 97.8954 355.895 97 357 97H452C453.105 97 454 97.8954 454 99V105C454 106.105 453.105 107 452 107H357C355.895 107 355 106.105 355 105V99Z" fill="#0F1E34"/>
<path fill-rule="evenodd" clip-rule="evenodd" d="M114 77C114 75.8954 114.895 75 116 75H199C200.105 75 201 75.8954 201 77V83C201 84.1046 200.105 85 199 85H116C114.895 85 114 84.1046 114 83V77Z" fill="#0F1E34"/>
<path fill-rule="evenodd" clip-rule="evenodd" d="M56 208C56 206.895 56.8954 206 58 206H171C172.105 206 173 206.895 173 208V214C173 215.105 172.105 216 171 216H58C56.8954 216 56 215.105 56 214V208Z" fill="#0F1E34"/>
<path fill-rule="evenodd" clip-rule="evenodd" d="M70 402C68.8954 402 68 401.105 68 400L68 380C68 378.895 68.8954 378 70 378L75.6535 378C76.758 378 77.6535 378.895 77.6535 380L77.6535 400C77.6535 401.105 76.758 402 75.6535 402L70 402Z" fill="#465E82"/>
<path fill-rule="evenodd" clip-rule="evenodd" d="M131.782 402C130.678 402 129.782 401.105 129.782 400L129.782 380C129.782 378.895 130.678 378 131.782 378L137.436 378C138.54 378 139.436 378.895 139.436 380L139.436 400C139.436 401.105 138.54 402 137.436 402L131.782 402Z" fill="#465E82"/>
<path fill-rule="evenodd" clip-rule="evenodd" d="M193.564 402C192.459 402 191.564 401.105 191.564 400L191.564 342C191.564 340.895 192.459 340 193.564 340L199.217 340C200.322 340 201.217 340.895 201.217 342L201.217 400C201.217 401.105 200.322 402 199.217 402L193.564 402Z" fill="#465E82"/>
<path fill-rule="evenodd" clip-rule="evenodd" d="M85.4453 402C84.3407 402 83.4453 401.105 83.4453 400L83.4453 364C83.4453 362.895 84.3407 362 85.4453 362L91.0988 362C92.2033 362 93.0988 362.895 93.0988 364L93.0988 400C93.0988 401.105 92.2033 402 91.0988 402L85.4453 402Z" fill="#465E82"/>
<path fill-rule="evenodd" clip-rule="evenodd" d="M147.228 402C146.123 402 145.228 401.105 145.228 400L145.228 356C145.228 354.895 146.123 354 147.228 354L152.881 354C153.986 354 154.881 354.895 154.881 356L154.881 400C154.881 401.105 153.986 402 152.881 402L147.228 402Z" fill="#465E82"/>
<path fill-rule="evenodd" clip-rule="evenodd" d="M209.01 402C207.905 402 207.01 401.105 207.01 400L207.01 364C207.01 362.895 207.905 362 209.01 362L214.663 362C215.768 362 216.663 362.895 216.663 364L216.663 400C216.663 401.105 215.768 402 214.663 402L209.01 402Z" fill="#465E82"/>
<path fill-rule="evenodd" clip-rule="evenodd" d="M100.891 402C99.7868 402 98.8914 401.105 98.8914 400L98.8914 380C98.8914 378.895 99.7868 378 100.891 378L106.545 378C107.649 378 108.545 378.895 108.545 380L108.545 400C108.545 401.105 107.649 402 106.545 402L100.891 402Z" fill="#465E82"/>
<path fill-rule="evenodd" clip-rule="evenodd" d="M162.674 402C161.569 402 160.674 401.105 160.674 400L160.674 367C160.674 365.895 161.569 365 162.674 365L168.327 365C169.432 365 170.327 365.895 170.327 367L170.327 400C170.327 401.105 169.432 402 168.327 402L162.674 402Z" fill="#465E82"/>
<path fill-rule="evenodd" clip-rule="evenodd" d="M224.455 402C223.351 402 222.455 401.105 222.455 400L222.455 347C222.455 345.895 223.351 345 224.455 345L230.109 345C231.213 345 232.109 345.895 232.109 347L232.109 400C232.109 401.105 231.213 402 230.109 402L224.455 402Z" fill="#465E82"/>
<path fill-rule="evenodd" clip-rule="evenodd" d="M239.901 402C238.797 402 237.901 401.105 237.901 400L237.901 337C237.901 335.895 238.797 335 239.901 335L245.555 335C246.659 335 247.555 335.895 247.555 337L247.555 400C247.555 401.105 246.659 402 245.555 402L239.901 402Z" fill="#465E82"/>
<path fill-rule="evenodd" clip-rule="evenodd" d="M116.337 402C115.232 402 114.337 401.105 114.337 400L114.337 345C114.337 343.895 115.232 343 116.337 343L121.99 343C123.095 343 123.99 343.895 123.99 345L123.99 400C123.99 401.105 123.095 402 121.99 402L116.337 402Z" fill="#465E82"/>
<path fill-rule="evenodd" clip-rule="evenodd" d="M178.118 402C177.014 402 176.118 401.105 176.118 400L176.118 333C176.118 331.895 177.014 331 178.118 331L183.772 331C184.876 331 185.772 331.895 185.772 333L185.772 400C185.772 401.105 184.876 402 183.772 402L178.118 402Z" fill="#465E82"/>
<path fill-rule="evenodd" clip-rule="evenodd" d="M255.346 402C254.242 402 253.346 401.105 253.346 400L253.346 318C253.346 316.895 254.242 316 255.346 316L261 316C262.104 316 263 316.895 263 318L263 400C263 401.105 262.104 402 261 402L255.346 402Z" fill="#465E82"/>
<path fill-rule="evenodd" clip-rule="evenodd" d="M369 224C367.895 224 367 223.105 367 222L367 214.279C367 213.175 367.895 212.279 369 212.279L374.653 212.279C375.758 212.279 376.653 213.175 376.653 214.279L376.653 222C376.653 223.105 375.758 224 374.653 224L369 224Z" fill="#465E82"/>
<path fill-rule="evenodd" clip-rule="evenodd" d="M430.782 224C429.678 224 428.782 223.105 428.782 222L428.782 214.279C428.782 213.175 429.678 212.279 430.782 212.279L436.436 212.279C437.54 212.279 438.436 213.175 438.436 214.279L438.436 222C438.436 223.105 437.54 224 436.436 224L430.782 224Z" fill="#465E82"/>
<path fill-rule="evenodd" clip-rule="evenodd" d="M492.564 224C491.459 224 490.564 223.105 490.564 222L490.564 195.721C490.564 194.616 491.459 193.721 492.564 193.721L498.217 193.721C499.322 193.721 500.217 194.616 500.217 195.721L500.217 222C500.217 223.105 499.322 224 498.217 224L492.564 224Z" fill="#465E82"/>
<path fill-rule="evenodd" clip-rule="evenodd" d="M384.445 224C383.341 224 382.445 223.105 382.445 222L382.445 206.465C382.445 205.361 383.341 204.465 384.445 204.465L390.099 204.465C391.203 204.465 392.099 205.361 392.099 206.465L392.099 222C392.099 223.105 391.203 224 390.099 224L384.445 224Z" fill="#465E82"/>
<path fill-rule="evenodd" clip-rule="evenodd" d="M446.228 224C445.123 224 444.228 223.105 444.228 222L444.228 202.558C444.228 201.454 445.123 200.558 446.228 200.558L451.881 200.558C452.986 200.558 453.881 201.454 453.881 202.558L453.881 222C453.881 223.105 452.986 224 451.881 224L446.228 224Z" fill="#465E82"/>
<path fill-rule="evenodd" clip-rule="evenodd" d="M508.01 224C506.905 224 506.01 223.105 506.01 222L506.01 206.465C506.01 205.361 506.905 204.465 508.01 204.465L513.663 204.465C514.768 204.465 515.663 205.361 515.663 206.465L515.663 222C515.663 223.105 514.768 224 513.663 224L508.01 224Z" fill="#465E82"/>
<path fill-rule="evenodd" clip-rule="evenodd" d="M399.891 224C398.787 224 397.891 223.105 397.891 222L397.891 214.279C397.891 213.175 398.787 212.279 399.891 212.279L405.545 212.279C406.649 212.279 407.545 213.175 407.545 214.279L407.545 222C407.545 223.105 406.649 224 405.545 224L399.891 224Z" fill="#465E82"/>
<path fill-rule="evenodd" clip-rule="evenodd" d="M461.674 224C460.569 224 459.674 223.105 459.674 222L459.674 207.93C459.674 206.826 460.569 205.93 461.674 205.93L467.327 205.93C468.432 205.93 469.327 206.826 469.327 207.93L469.327 222C469.327 223.105 468.432 224 467.327 224L461.674 224Z" fill="#465E82"/>
<path fill-rule="evenodd" clip-rule="evenodd" d="M523.455 224C522.351 224 521.455 223.105 521.455 222L521.455 198.163C521.455 197.058 522.351 196.163 523.455 196.163L529.109 196.163C530.213 196.163 531.109 197.058 531.109 198.163L531.109 222C531.109 223.105 530.213 224 529.109 224L523.455 224Z" fill="#465E82"/>
<path fill-rule="evenodd" clip-rule="evenodd" d="M538.901 224C537.796 224 536.901 223.105 536.901 222L536.901 193.279C536.901 192.174 537.796 191.279 538.901 191.279L544.554 191.279C545.659 191.279 546.554 192.174 546.554 193.279L546.554 222C546.554 223.105 545.659 224 544.554 224L538.901 224Z" fill="#465E82"/>
<path fill-rule="evenodd" clip-rule="evenodd" d="M415.336 224C414.232 224 413.336 223.105 413.336 222L413.336 197.186C413.336 196.081 414.232 195.186 415.336 195.186L420.99 195.186C422.094 195.186 422.99 196.081 422.99 197.186L422.99 222C422.99 223.105 422.094 224 420.99 224L415.336 224Z" fill="#465E82"/>
<path fill-rule="evenodd" clip-rule="evenodd" d="M477.118 224C476.014 224 475.118 223.105 475.118 222L475.118 191.326C475.118 190.221 476.014 189.326 477.118 189.326L482.772 189.326C483.876 189.326 484.772 190.221 484.772 191.326L484.772 222C484.772 223.105 483.876 224 482.772 224L477.118 224Z" fill="#465E82"/>
<path fill-rule="evenodd" clip-rule="evenodd" d="M554.346 224C553.242 224 552.346 223.105 552.346 222L552.346 184C552.346 182.895 553.242 182 554.346 182L560 182C561.104 182 562 182.895 562 184L562 222C562 223.105 561.104 224 560 224L554.346 224Z" fill="#465E82"/>
<circle cx="77.5" cy="70.5" r="20.5" fill="#465E82"/>
<rect x="330" y="398" width="388" height="31" rx="8" fill="#213450"/>
<path fill-rule="evenodd" clip-rule="evenodd" d="M373 411C373 409.895 373.895 409 375 409H431C432.105 409 433 409.895 433 411V417C433 418.105 432.105 419 431 419H375C373.895 419 373 418.105 373 417V411Z" fill="#465E82"/>
<path fill-rule="evenodd" clip-rule="evenodd" d="M508 411C508 409.895 508.895 409 510 409H622C623.105 409 624 409.895 624 411V417C624 418.105 623.105 419 622 419H510C508.895 419 508 418.105 508 417V411Z" fill="#465E82"/>
<circle cx="349" cy="414" r="7" fill="#465E82"/>
<rect x="330" y="358" width="388" height="31" rx="8" fill="#213450"/>
<path fill-rule="evenodd" clip-rule="evenodd" d="M373 371C373 369.895 373.895 369 375 369H405C406.105 369 407 369.895 407 371V377C407 378.105 406.105 379 405 379H375C373.895 379 373 378.105 373 377V371Z" fill="#465E82"/>
<path fill-rule="evenodd" clip-rule="evenodd" d="M508 371C508 369.895 508.895 369 510 369H573C574.105 369 575 369.895 575 371V377C575 378.105 574.105 379 573 379H510C508.895 379 508 378.105 508 377V371Z" fill="#465E82"/>
<circle cx="349" cy="374" r="7" fill="#465E82"/>
<rect x="330" y="318" width="388" height="31" rx="8" fill="#213450"/>
<path fill-rule="evenodd" clip-rule="evenodd" d="M373 331C373 329.895 373.895 329 375 329H418C419.105 329 420 329.895 420 331V337C420 338.105 419.105 339 418 339H375C373.895 339 373 338.105 373 337V331Z" fill="#465E82"/>
<path fill-rule="evenodd" clip-rule="evenodd" d="M508 331C508 329.895 508.895 329 510 329H662C663.105 329 664 329.895 664 331V337C664 338.105 663.105 339 662 339H510C508.895 339 508 338.105 508 337V331Z" fill="#465E82"/>
<circle cx="349" cy="334" r="7" fill="#465E82"/>
<rect x="330" y="278" width="388" height="31" rx="8" fill="#213450"/>
<path fill-rule="evenodd" clip-rule="evenodd" d="M373 291C373 289.895 373.895 289 375 289H439C440.105 289 441 289.895 441 291V297C441 298.105 440.105 299 439 299H375C373.895 299 373 298.105 373 297V291Z" fill="#465E82"/>
<path fill-rule="evenodd" clip-rule="evenodd" d="M508 291C508 289.895 508.895 289 510 289H606C607.105 289 608 289.895 608 291V297C608 298.105 607.105 299 606 299H510C508.895 299 508 298.105 508 297V291Z" fill="#465E82"/>
<circle cx="349" cy="294" r="7" fill="#465E82"/>
<path d="M78 70.0002L77.9996 70.0002C80.3785 70.0002 82.3073 67.9853 82.3073 65.5003C82.3073 63.0149 80.3785 61.0004 77.9996 61C75.6204 60.9996 73.6919 63.0145 73.6915 65.4995V65.4991C73.6912 67.9841 75.62 69.999 77.9988 69.999L78 70.0002ZM78 71.2859C75.33 71.2859 70 73.0087 70 76.4286V79H86V76.4286C86 73.0087 80.67 71.2859 78 71.2859Z" fill="#213450"/>
</svg>
