<svg width="33" height="33" viewBox="0 0 33 33" fill="none" xmlns="http://www.w3.org/2000/svg">
<path d="M18.2376 0V2.27833C25.1191 2.27833 30.7289 7.89442 30.7289 14.8092H33C33 6.64361 26.3683 0 18.2376 0ZM6.48441 3.4175C5.88256 3.4175 5.29206 3.61116 4.80376 3.99847L4.74699 4.03265L1.16994 7.72354L1.23807 7.6438C0.045721 8.65766 -0.272239 10.2753 0.227412 11.6309C1.18129 14.3877 3.62277 19.7417 8.42624 24.5718C13.2411 29.4133 18.635 31.7486 21.3036 32.7966H21.3263H21.349C22.7231 33.2523 24.2107 32.9219 25.2781 32.0106L25.3008 31.9764L28.8495 28.4165C29.7807 27.471 29.7807 25.8078 28.8495 24.8623L24.1936 20.1803C23.2398 19.2234 21.5932 19.2234 20.6507 20.1803L18.3909 22.4359C17.5733 22.0486 15.5974 21.0461 13.7123 19.2348C11.85 17.4463 10.8961 15.3844 10.5554 14.5984L12.8266 12.3201C13.8145 11.3176 13.8713 9.59747 12.7244 8.68614L12.8266 8.77727L8.11395 3.93582L8.05718 3.89025C7.56888 3.49154 6.96703 3.29788 6.37653 3.29788L6.48441 3.4175ZM18.2262 4.54527V6.8236C22.5982 6.8236 26.1752 10.4006 26.1752 14.7978H28.4464C28.4464 9.13611 23.8587 4.54527 18.2262 4.54527ZM6.47305 5.68444C6.55254 5.67305 6.63203 5.70722 6.71152 5.77557L11.3219 10.5145L11.3674 10.5487C11.3447 10.5373 11.4014 10.6398 11.2652 10.7765L7.90387 14.137L8.1537 14.8205C8.1537 14.8205 9.42554 18.3064 12.1736 20.9265C14.8649 23.501 18.1808 24.9022 18.1808 24.9022L18.8848 25.1983L22.2575 21.8036C22.4392 21.61 22.3938 21.61 22.5755 21.8036L27.2199 26.4742C27.413 26.6679 27.413 26.5995 27.2199 26.7932L23.7564 30.2562C23.2227 30.7005 22.6777 30.8144 22.0304 30.598C19.4526 29.5841 14.4334 27.3742 9.97061 22.8972C5.47375 18.3861 3.14583 13.2713 2.2828 10.7879L2.27144 10.7651L2.26008 10.7423C2.07839 10.2753 2.20331 9.61456 2.61211 9.27281L2.64618 9.23863L6.10967 5.65026C6.1778 5.58191 6.26865 5.55913 6.34814 5.54774L6.47305 5.68444ZM18.2149 9.10193V11.3803C20.0886 11.3803 21.6216 12.9136 21.6216 14.7978H23.8927C23.8927 11.6537 21.3377 9.10193 18.2149 9.10193Z" fill="#3959FF"/>
</svg>
