<svg width="681" height="558" viewBox="0 0 681 558" fill="none" xmlns="http://www.w3.org/2000/svg">
<rect x="0.9375" width="680" height="558" fill="#071324"/>
<mask id="mask0_1301_18017" style="mask-type:alpha" maskUnits="userSpaceOnUse" x="0" y="0" width="681" height="558">
<rect x="0.9375" width="680" height="558" fill="#EAD9CC"/>
</mask>
<g mask="url(#mask0_1301_18017)">
<g filter="url(#filter0_d_1301_18017)">
<rect width="856.702" height="635.279" rx="24" transform="matrix(0.90257 -0.430543 0.707074 0.707139 288.049 450.223)" fill="#0F1E34"/>
</g>
<rect width="189.609" height="399.99" rx="8" transform="matrix(0.90257 -0.430543 0.707074 0.707139 463.78 568.771)" fill="#213450"/>
<rect width="536.996" height="305.875" rx="8" transform="matrix(0.90257 -0.430543 0.707074 0.707139 567.241 360.408)" fill="#213450"/>
<rect width="189.609" height="109.34" rx="8" transform="matrix(0.90257 -0.430543 0.707074 0.707139 356.132 461.111)" fill="#213450"/>
<path fill-rule="evenodd" clip-rule="evenodd" d="M515.35 581.596C513.788 580.034 514.138 577.997 516.132 577.045L626.333 524.477C628.327 523.526 631.209 524.022 632.771 525.584L641.794 534.607C643.356 536.17 643.006 538.207 641.012 539.158L530.811 591.726C528.817 592.677 525.935 592.182 524.373 590.62L515.35 581.596Z" fill="#465E82"/>
<path fill-rule="evenodd" clip-rule="evenodd" d="M622.828 369.872C621.266 368.309 621.616 366.272 623.61 365.321L972.402 198.94C974.396 197.989 977.279 198.485 978.841 200.047L987.863 209.07C989.425 210.633 989.075 212.67 987.081 213.621L638.29 380.002C636.296 380.953 633.413 380.457 631.851 378.895L622.828 369.872Z" fill="#465E82"/>
<path fill-rule="evenodd" clip-rule="evenodd" d="M645.88 392.926C645.099 392.145 645.274 391.126 646.271 390.651L901.238 269.026C902.235 268.551 903.676 268.798 904.457 269.58L911.415 276.538C912.196 277.319 912.021 278.338 911.024 278.814L656.057 400.438C655.06 400.913 653.619 400.666 652.838 399.885L645.88 392.926Z" fill="#0F1E34"/>
<path fill-rule="evenodd" clip-rule="evenodd" d="M665.452 412.5C664.671 411.719 664.846 410.7 665.843 410.225L785.9 352.955C786.897 352.48 788.339 352.727 789.12 353.508L796.078 360.467C796.859 361.248 796.684 362.267 795.687 362.742L675.629 420.012C674.633 420.488 673.191 420.24 672.41 419.459L665.452 412.5Z" fill="#0F1E34"/>
<ellipse cx="28.3722" cy="28.373" rx="28.3722" ry="28.373" transform="matrix(0.90257 -0.430543 0.707074 0.707139 433.707 450.127)" fill="#465E82"/>
<path d="M479.512 457.188L479.512 457.188C482.483 455.771 482.921 452.649 480.489 450.217C478.057 447.785 473.676 446.963 470.704 448.38C467.731 449.797 467.294 452.918 469.726 455.351L469.725 455.35C472.157 457.782 476.538 458.605 479.509 457.188L479.512 457.188ZM480.77 458.446C477.435 460.037 472.463 464.9 475.81 468.247L478.326 470.763L498.313 461.229L495.796 458.713C492.45 455.366 484.106 456.855 480.77 458.446Z" fill="#213450"/>
<g filter="url(#filter1_d_1301_18017)">
<rect width="856.702" height="635.279" rx="24" transform="matrix(0.90257 -0.430543 0.707074 0.707139 -336.156 21.2598)" fill="#0F1E34"/>
</g>
<rect width="189.609" height="399.99" rx="8" transform="matrix(0.90257 -0.430543 0.707074 0.707139 -160.425 139.809)" fill="#213450"/>
<rect width="536.996" height="305.875" rx="8" transform="matrix(0.90257 -0.430543 0.707074 0.707139 -56.9639 -68.5547)" fill="#213450"/>
<rect width="304.482" height="116.26" rx="8" transform="matrix(0.90257 -0.430543 0.707074 0.707139 89.4727 33.6113)" fill="#0F1E34"/>
<path fill-rule="evenodd" clip-rule="evenodd" d="M-20.2615 204.332C-21.8236 202.77 -21.4735 200.733 -19.4796 199.782L48.2498 167.473C50.2437 166.522 53.1264 167.018 54.6884 168.58L58.8181 172.71C60.3801 174.272 60.03 176.31 58.0361 177.261L-9.69329 209.569C-11.6872 210.52 -14.5698 210.025 -16.1319 208.463L-20.2615 204.332Z" fill="#465E82"/>
<path fill-rule="evenodd" clip-rule="evenodd" d="M127.511 352.12C125.949 350.557 126.299 348.52 128.293 347.569L196.022 315.261C198.016 314.309 200.899 314.805 202.461 316.367L206.591 320.497C208.153 322.059 207.802 324.097 205.809 325.048L138.079 357.356C136.085 358.307 133.203 357.812 131.641 356.25L127.511 352.12Z" fill="#465E82"/>
<path fill-rule="evenodd" clip-rule="evenodd" d="M107.939 332.543C106.377 330.981 106.727 328.944 108.721 327.993L176.45 295.684C178.444 294.733 181.327 295.229 182.889 296.791L187.018 300.921C188.58 302.483 188.23 304.52 186.236 305.472L118.507 337.78C116.513 338.731 113.63 338.236 112.068 336.673L107.939 332.543Z" fill="#465E82"/>
<path fill-rule="evenodd" clip-rule="evenodd" d="M-0.688304 223.907C-2.25033 222.345 -1.90022 220.307 0.0936782 219.356L67.8231 187.048C69.817 186.097 72.6996 186.592 74.2616 188.154L78.3913 192.284C79.9534 193.846 79.6032 195.884 77.6093 196.835L9.87995 229.143C7.88605 230.094 5.0034 229.599 3.44137 228.037L-0.688304 223.907Z" fill="#465E82"/>
<path fill-rule="evenodd" clip-rule="evenodd" d="M147.084 371.694C145.522 370.132 145.872 368.094 147.866 367.143L215.596 334.835C217.589 333.884 220.472 334.379 222.034 335.941L226.164 340.071C227.726 341.633 227.376 343.671 225.382 344.622L157.652 376.93C155.659 377.881 152.776 377.386 151.214 375.824L147.084 371.694Z" fill="#465E82"/>
<rect width="13.8401" height="13.8405" rx="5" transform="matrix(0.90257 -0.430543 0.707074 0.707139 99.7002 361.207)" fill="#465E82"/>
<rect width="13.8401" height="13.8405" rx="5" transform="matrix(0.90257 -0.430543 0.707074 0.707139 80.127 341.633)" fill="#465E82"/>
<rect width="13.8401" height="13.8405" rx="5" transform="matrix(0.90257 -0.430543 0.707074 0.707139 119.272 380.781)" fill="#465E82"/>
<path fill-rule="evenodd" clip-rule="evenodd" d="M-108.855 152.633C-110.417 151.071 -110.067 149.034 -108.073 148.083L2.12773 95.5145C4.12164 94.5633 7.00428 95.0587 8.5663 96.6209L17.5891 105.644C19.1511 107.207 18.801 109.244 16.8071 110.195L-93.3939 162.763C-95.3878 163.714 -98.2705 163.219 -99.8325 161.657L-108.855 152.633Z" fill="#465E82"/>
<path fill-rule="evenodd" clip-rule="evenodd" d="M-0.663 260.836C-1.44401 260.055 -1.26896 259.036 -0.272009 258.561L62.3235 228.702C63.3205 228.226 64.7618 228.474 65.5428 229.255L72.5008 236.213C73.2818 236.994 73.1067 238.013 72.1098 238.489L9.51427 268.348C8.51731 268.824 7.07599 268.576 6.29498 267.795L-0.663 260.836Z" fill="#0F1E34"/>
<path fill-rule="evenodd" clip-rule="evenodd" d="M36.5245 298.028C35.7435 297.246 35.9185 296.228 36.9155 295.752L124.494 253.975C125.491 253.5 126.933 253.748 127.714 254.529L134.672 261.487C135.453 262.268 135.278 263.287 134.281 263.763L46.7018 305.539C45.7048 306.015 44.2635 305.767 43.4825 304.986L36.5245 298.028Z" fill="#0F1E34"/>
<path fill-rule="evenodd" clip-rule="evenodd" d="M-68.1884 193.305C-68.9694 192.524 -68.7944 191.505 -67.7974 191.03L17.2831 150.444C18.2801 149.969 19.7214 150.217 20.5024 150.998L27.4604 157.956C28.2414 158.737 28.0663 159.756 27.0694 160.232L-58.0111 200.817C-59.0081 201.292 -60.4494 201.045 -61.2304 200.264L-68.1884 193.305Z" fill="#0F1E34"/>
<path fill-rule="evenodd" clip-rule="evenodd" d="M17.9307 279.432C17.1497 278.651 17.3248 277.632 18.3217 277.156L127.136 225.25C128.133 224.774 129.575 225.022 130.356 225.803L137.314 232.762C138.095 233.543 137.92 234.561 136.923 235.037L28.108 286.944C27.111 287.419 25.6697 287.172 24.8887 286.39L17.9307 279.432Z" fill="#0F1E34"/>
<path fill-rule="evenodd" clip-rule="evenodd" d="M180.914 98.4084C179.917 98.884 178.475 98.6363 177.694 97.8553L169.052 89.2123C168.271 88.4313 168.446 87.4125 169.443 86.937L177.892 82.9069C178.889 82.4313 180.33 82.679 181.111 83.4601L189.753 92.103C190.534 92.8841 190.359 93.9028 189.362 94.3784L180.914 98.4084Z" fill="#465E82"/>
<path fill-rule="evenodd" clip-rule="evenodd" d="M258.089 61.594C257.092 62.0696 255.651 61.8219 254.87 61.0408L246.228 52.3979C245.447 51.6168 245.622 50.5981 246.619 50.1225L255.067 46.0924C256.064 45.6169 257.506 45.8645 258.287 46.6456L266.929 55.2885C267.71 56.0696 267.535 57.0883 266.538 57.5639L258.089 61.594Z" fill="#465E82"/>
<path fill-rule="evenodd" clip-rule="evenodd" d="M335.265 24.7795C334.268 25.2551 332.827 25.0074 332.046 24.2263L305.242 -2.57971C304.461 -3.36079 304.636 -4.37951 305.633 -4.85507L314.082 -8.88519C315.079 -9.36075 316.52 -9.11308 317.301 -8.33199L344.105 18.4741C344.886 19.2551 344.711 20.2739 343.714 20.7494L335.265 24.7795Z" fill="#465E82"/>
<path fill-rule="evenodd" clip-rule="evenodd" d="M200.207 89.2053C199.211 89.6809 197.769 89.4332 196.988 88.6521L180.699 72.3616C179.918 71.5805 180.093 70.5618 181.09 70.0862L189.539 66.0561C190.536 65.5805 191.977 65.8282 192.758 66.6093L209.047 82.8999C209.828 83.6809 209.653 84.6997 208.656 85.1752L200.207 89.2053Z" fill="#465E82"/>
<path fill-rule="evenodd" clip-rule="evenodd" d="M277.384 52.3909C276.387 52.8664 274.946 52.6188 274.165 51.8377L254.052 31.7233C253.271 30.9422 253.446 29.9235 254.443 29.4479L262.892 25.4178C263.889 24.9423 265.33 25.19 266.111 25.971L286.224 46.0854C287.005 46.8665 286.83 47.8852 285.833 48.3608L277.384 52.3909Z" fill="#465E82"/>
<path fill-rule="evenodd" clip-rule="evenodd" d="M354.56 15.5764C353.563 16.052 352.122 15.8043 351.341 15.0232L335.052 -1.26733C334.271 -2.04842 334.446 -3.06713 335.443 -3.54269L343.891 -7.57281C344.888 -8.04837 346.329 -7.8007 347.11 -7.01962L363.4 9.27093C364.181 10.052 364.006 11.0707 363.009 11.5463L354.56 15.5764Z" fill="#465E82"/>
<path fill-rule="evenodd" clip-rule="evenodd" d="M219.501 80.0022C218.504 80.4778 217.063 80.2301 216.282 79.449L207.64 70.8061C206.859 70.025 207.034 69.0063 208.031 68.5307L216.48 64.5006C217.476 64.0251 218.918 64.2727 219.699 65.0538L228.341 73.6967C229.122 74.4778 228.947 75.4965 227.95 75.9721L219.501 80.0022Z" fill="#465E82"/>
<path fill-rule="evenodd" clip-rule="evenodd" d="M296.678 43.1877C295.681 43.6633 294.24 43.4156 293.459 42.6345L278.604 27.7779C277.823 26.9969 277.998 25.9781 278.995 25.5026L287.443 21.4725C288.44 20.9969 289.881 21.2446 290.662 22.0257L305.518 36.8823C306.299 37.6634 306.124 38.6821 305.127 39.1576L296.678 43.1877Z" fill="#465E82"/>
<path fill-rule="evenodd" clip-rule="evenodd" d="M373.853 6.37329C372.856 6.84885 371.415 6.60118 370.634 5.8201L346.22 -18.5961C345.439 -19.3772 345.614 -20.3959 346.611 -20.8714L355.059 -24.9016C356.056 -25.3771 357.498 -25.1295 358.279 -24.3484L382.693 0.0678065C383.474 0.848891 383.298 1.86761 382.302 2.34317L373.853 6.37329Z" fill="#465E82"/>
<path fill-rule="evenodd" clip-rule="evenodd" d="M238.795 70.7991C237.798 71.2746 236.357 71.027 235.576 70.2459L210.206 44.8738C209.425 44.0927 209.6 43.074 210.597 42.5984L219.046 38.5683C220.043 38.0927 221.484 38.3404 222.265 39.1215L247.635 64.4936C248.416 65.2747 248.241 66.2934 247.244 66.769L238.795 70.7991Z" fill="#465E82"/>
<path fill-rule="evenodd" clip-rule="evenodd" d="M315.971 33.9846C314.974 34.4602 313.533 34.2125 312.752 33.4314L281.647 2.32356C280.866 1.54247 281.041 0.523758 282.038 0.0481933L290.486 -3.98191C291.483 -4.45747 292.925 -4.2098 293.706 -3.42872L324.811 27.6791C325.592 28.4602 325.417 29.479 324.42 29.9545L315.971 33.9846Z" fill="#465E82"/>
<rect width="536.996" height="42.9056" rx="8" transform="matrix(0.90257 -0.430543 0.707074 0.707139 303.17 291.613)" fill="#213450"/>
<path fill-rule="evenodd" clip-rule="evenodd" d="M369.064 278.17C368.283 277.389 368.458 276.37 369.455 275.895L440.794 241.864C441.791 241.389 443.233 241.636 444.014 242.418L450.972 249.376C451.753 250.157 451.577 251.176 450.581 251.652L379.241 285.682C378.244 286.158 376.803 285.91 376.022 285.129L369.064 278.17Z" fill="#465E82"/>
<path fill-rule="evenodd" clip-rule="evenodd" d="M537.7 197.727C536.919 196.946 537.094 195.927 538.091 195.451L679.384 128.052C680.381 127.576 681.823 127.824 682.604 128.605L689.561 135.564C690.343 136.345 690.167 137.364 689.171 137.839L547.878 205.239C546.881 205.714 545.439 205.466 544.658 204.685L537.7 197.727Z" fill="#465E82"/>
<ellipse cx="9.68806" cy="9.68832" rx="9.68806" ry="9.68832" transform="matrix(0.90257 -0.430543 0.707074 0.707139 326.968 293.271)" fill="#465E82"/>
<rect width="536.996" height="42.9056" rx="8" transform="matrix(0.90257 -0.430543 0.707074 0.707139 264.025 252.465)" fill="#213450"/>
<path fill-rule="evenodd" clip-rule="evenodd" d="M329.919 239.022C329.138 238.241 329.313 237.222 330.31 236.746L369.171 218.209C370.168 217.733 371.61 217.981 372.391 218.762L379.349 225.721C380.13 226.502 379.955 227.52 378.958 227.996L340.096 246.534C339.099 247.009 337.658 246.761 336.877 245.98L329.919 239.022Z" fill="#465E82"/>
<path fill-rule="evenodd" clip-rule="evenodd" d="M498.556 158.578C497.775 157.797 497.95 156.779 498.947 156.303L579.031 118.101C580.028 117.626 581.469 117.874 582.25 118.655L589.208 125.613C589.989 126.394 589.814 127.413 588.817 127.889L508.733 166.09C507.736 166.566 506.295 166.318 505.514 165.537L498.556 158.578Z" fill="#465E82"/>
<ellipse cx="9.68806" cy="9.68834" rx="9.68806" ry="9.68834" transform="matrix(0.90257 -0.430543 0.707074 0.707139 287.823 254.123)" fill="#465E82"/>
<rect width="536.996" height="42.9055" rx="8" transform="matrix(0.90257 -0.430543 0.707074 0.707139 224.88 213.316)" fill="#213450"/>
<path fill-rule="evenodd" clip-rule="evenodd" d="M290.774 199.873C289.993 199.092 290.168 198.073 291.165 197.598L346.265 171.314C347.262 170.838 348.703 171.086 349.484 171.867L356.442 178.826C357.223 179.607 357.048 180.625 356.051 181.101L300.951 207.385C299.954 207.861 298.513 207.613 297.731 206.832L290.774 199.873Z" fill="#465E82"/>
<path fill-rule="evenodd" clip-rule="evenodd" d="M459.41 119.43C458.629 118.649 458.804 117.63 459.801 117.155L651.061 25.92C652.058 25.4444 653.499 25.6921 654.28 26.4732L661.238 33.4318C662.019 34.2129 661.844 35.2316 660.847 35.7072L469.587 126.942C468.591 127.417 467.149 127.17 466.368 126.389L459.41 119.43Z" fill="#465E82"/>
<ellipse cx="9.68806" cy="9.68835" rx="9.68806" ry="9.68835" transform="matrix(0.90257 -0.430543 0.707074 0.707139 248.678 214.975)" fill="#465E82"/>
<g opacity="0.3" filter="url(#filter2_f_1301_18017)">
<rect width="513.468" height="42.9055" rx="8" transform="matrix(0.90257 -0.430543 0.707074 0.707139 224.085 164.547)" fill="#FF6501"/>
</g>
<rect width="536.996" height="42.9055" rx="8" transform="matrix(0.90257 -0.430543 0.707074 0.707139 192.458 155.059)" fill="#FF6501"/>
<path fill-rule="evenodd" clip-rule="evenodd" d="M258.352 141.615C257.571 140.834 257.746 139.816 258.743 139.34L340.076 100.543C341.073 100.067 342.514 100.315 343.295 101.096L350.253 108.054C351.034 108.836 350.859 109.854 349.862 110.33L268.529 149.127C267.532 149.603 266.091 149.355 265.31 148.574L258.352 141.615Z" fill="#FFB382"/>
<path fill-rule="evenodd" clip-rule="evenodd" d="M426.988 61.1721C426.207 60.391 426.382 59.3723 427.379 58.8967L548.686 1.03127C549.683 0.555702 551.124 0.803374 551.905 1.58446L558.863 8.54305C559.644 9.32414 559.469 10.3429 558.472 10.8184L437.166 68.6839C436.169 69.1594 434.727 68.9118 433.946 68.1307L426.988 61.1721Z" fill="#FFB382"/>
<ellipse cx="9.68808" cy="9.68834" rx="9.68808" ry="9.68834" transform="matrix(0.90257 -0.430543 0.707074 0.707139 216.256 156.717)" fill="#FFB382"/>
</g>
<defs>
<filter id="filter0_d_1301_18017" x="259.162" y="73.8066" width="1280.2" height="883.215" filterUnits="userSpaceOnUse" color-interpolation-filters="sRGB">
<feFlood flood-opacity="0" result="BackgroundImageFix"/>
<feColorMatrix in="SourceAlpha" type="matrix" values="0 0 0 0 0 0 0 0 0 0 0 0 0 0 0 0 0 0 127 0" result="hardAlpha"/>
<feMorphology radius="10" operator="erode" in="SourceAlpha" result="effect1_dropShadow_1301_18017"/>
<feOffset dy="25"/>
<feGaussianBlur stdDeviation="25"/>
<feColorMatrix type="matrix" values="0 0 0 0 0.021875 0 0 0 0 0.0395148 0 0 0 0 0.125 0 0 0 1 0"/>
<feBlend mode="normal" in2="BackgroundImageFix" result="effect1_dropShadow_1301_18017"/>
<feBlend mode="normal" in="SourceGraphic" in2="effect1_dropShadow_1301_18017" result="shape"/>
</filter>
<filter id="filter1_d_1301_18017" x="-365.043" y="-355.156" width="1280.2" height="883.215" filterUnits="userSpaceOnUse" color-interpolation-filters="sRGB">
<feFlood flood-opacity="0" result="BackgroundImageFix"/>
<feColorMatrix in="SourceAlpha" type="matrix" values="0 0 0 0 0 0 0 0 0 0 0 0 0 0 0 0 0 0 127 0" result="hardAlpha"/>
<feMorphology radius="10" operator="erode" in="SourceAlpha" result="effect1_dropShadow_1301_18017"/>
<feOffset dy="25"/>
<feGaussianBlur stdDeviation="25"/>
<feColorMatrix type="matrix" values="0 0 0 0 0.021875 0 0 0 0 0.0395148 0 0 0 0 0.125 0 0 0 1 0"/>
<feBlend mode="normal" in2="BackgroundImageFix" result="effect1_dropShadow_1301_18017"/>
<feBlend mode="normal" in="SourceGraphic" in2="effect1_dropShadow_1301_18017" result="shape"/>
</filter>
<filter id="filter2_f_1301_18017" x="197.789" y="-84.0469" width="546.369" height="306.457" filterUnits="userSpaceOnUse" color-interpolation-filters="sRGB">
<feFlood flood-opacity="0" result="BackgroundImageFix"/>
<feBlend mode="normal" in="SourceGraphic" in2="BackgroundImageFix" result="shape"/>
<feGaussianBlur stdDeviation="15" result="effect1_foregroundBlur_1301_18017"/>
</filter>
</defs>
</svg>
